<mxfile host="app.diagrams.net" modified="2024-03-10T19:20:40.474Z" agent="Mozilla/5.0 (Windows NT 10.0; Win64; x64) AppleWebKit/537.36 (KHTML, like Gecko) Chrome/122.0.0.0 Safari/537.36" etag="bx7a7joH2gYOoOnvya3N" version="22.1.21" type="device">
  <diagram name="Page-1" id="bUG_ZIGa0ejmYu7qgl6q">
    <mxGraphModel dx="2595" dy="2193" grid="1" gridSize="10" guides="1" tooltips="1" connect="1" arrows="1" fold="1" page="1" pageScale="1" pageWidth="980" pageHeight="1390" math="0" shadow="0">
      <root>
        <mxCell id="0" />
        <mxCell id="1" parent="0" />
        <mxCell id="ummZqKJOf66ntcJbv5-0-1" value="A&lt;br style=&quot;border-color: var(--border-color);&quot;&gt;Carbón&lt;br style=&quot;border-color: var(--border-color);&quot;&gt;sub-bituminoso" style="rounded=1;whiteSpace=wrap;html=1;" vertex="1" parent="1">
          <mxGeometry x="-300" y="-190" width="120" height="60" as="geometry" />
        </mxCell>
        <mxCell id="ummZqKJOf66ntcJbv5-0-2" value="B&lt;br style=&quot;border-color: var(--border-color);&quot;&gt;Carbón &lt;br&gt;bituminoso" style="rounded=1;whiteSpace=wrap;html=1;" vertex="1" parent="1">
          <mxGeometry x="-159" y="-190" width="120" height="60" as="geometry" />
        </mxCell>
        <mxCell id="ummZqKJOf66ntcJbv5-0-3" value="C&lt;br style=&quot;border-color: var(--border-color);&quot;&gt;Carbón&lt;br style=&quot;border-color: var(--border-color);&quot;&gt;bituminoso" style="rounded=1;whiteSpace=wrap;html=1;" vertex="1" parent="1">
          <mxGeometry x="-18" y="-190" width="120" height="60" as="geometry" />
        </mxCell>
        <mxCell id="ummZqKJOf66ntcJbv5-0-4" value="D&lt;br&gt;Nuclear" style="rounded=1;whiteSpace=wrap;html=1;" vertex="1" parent="1">
          <mxGeometry x="123" y="-190" width="120" height="60" as="geometry" />
        </mxCell>
        <mxCell id="ummZqKJOf66ntcJbv5-0-5" value="E&lt;br style=&quot;border-color: var(--border-color);&quot;&gt;Nuclear" style="rounded=1;whiteSpace=wrap;html=1;" vertex="1" parent="1">
          <mxGeometry x="264" y="-190" width="120" height="60" as="geometry" />
        </mxCell>
        <mxCell id="ummZqKJOf66ntcJbv5-0-6" value="I&lt;br&gt;Hidráuica&amp;nbsp;&lt;br&gt;Agua" style="rounded=1;whiteSpace=wrap;html=1;" vertex="1" parent="1">
          <mxGeometry x="829" y="-190" width="120" height="60" as="geometry" />
        </mxCell>
        <mxCell id="ummZqKJOf66ntcJbv5-0-7" value="H&lt;br&gt;Gas&lt;br&gt;gas natural" style="rounded=1;whiteSpace=wrap;html=1;" vertex="1" parent="1">
          <mxGeometry x="688" y="-190" width="120" height="60" as="geometry" />
        </mxCell>
        <mxCell id="ummZqKJOf66ntcJbv5-0-8" value="F&lt;br&gt;Petróleo&lt;br&gt;licor negro" style="rounded=1;whiteSpace=wrap;html=1;" vertex="1" parent="1">
          <mxGeometry x="406" y="-190" width="120" height="60" as="geometry" />
        </mxCell>
        <mxCell id="ummZqKJOf66ntcJbv5-0-9" value="G&lt;br&gt;Biomasa&lt;br&gt;licor negro" style="rounded=1;whiteSpace=wrap;html=1;" vertex="1" parent="1">
          <mxGeometry x="547" y="-190" width="120" height="60" as="geometry" />
        </mxCell>
        <mxCell id="ummZqKJOf66ntcJbv5-0-10" value="J&lt;br&gt;Carbón&lt;br&gt;bituminoso" style="rounded=1;whiteSpace=wrap;html=1;" vertex="1" parent="1">
          <mxGeometry x="970" y="-190" width="120" height="60" as="geometry" />
        </mxCell>
        <mxCell id="ummZqKJOf66ntcJbv5-0-22" value="A&lt;br style=&quot;border-color: var(--border-color);&quot;&gt;Carbón&lt;br style=&quot;border-color: var(--border-color);&quot;&gt;sub-bituminoso" style="rounded=1;whiteSpace=wrap;html=1;" vertex="1" parent="1">
          <mxGeometry x="-300" y="-90" width="120" height="60" as="geometry" />
        </mxCell>
        <mxCell id="ummZqKJOf66ntcJbv5-0-23" value="B&lt;br style=&quot;border-color: var(--border-color);&quot;&gt;Carbón &lt;br&gt;bituminoso" style="rounded=1;whiteSpace=wrap;html=1;" vertex="1" parent="1">
          <mxGeometry x="-159" y="-90" width="120" height="60" as="geometry" />
        </mxCell>
        <mxCell id="ummZqKJOf66ntcJbv5-0-24" value="C&lt;br style=&quot;border-color: var(--border-color);&quot;&gt;Carbón&lt;br style=&quot;border-color: var(--border-color);&quot;&gt;bituminoso" style="rounded=1;whiteSpace=wrap;html=1;" vertex="1" parent="1">
          <mxGeometry x="-18" y="-90" width="120" height="60" as="geometry" />
        </mxCell>
        <mxCell id="ummZqKJOf66ntcJbv5-0-25" value="D&lt;br&gt;Nuclear" style="rounded=1;whiteSpace=wrap;html=1;" vertex="1" parent="1">
          <mxGeometry x="123" y="-90" width="120" height="60" as="geometry" />
        </mxCell>
        <mxCell id="ummZqKJOf66ntcJbv5-0-26" value="E&lt;br style=&quot;border-color: var(--border-color);&quot;&gt;Nuclear" style="rounded=1;whiteSpace=wrap;html=1;" vertex="1" parent="1">
          <mxGeometry x="264" y="-90" width="120" height="60" as="geometry" />
        </mxCell>
        <mxCell id="ummZqKJOf66ntcJbv5-0-27" value="I&lt;br&gt;Hidráuica&amp;nbsp;&lt;br&gt;Agua" style="rounded=1;whiteSpace=wrap;html=1;" vertex="1" parent="1">
          <mxGeometry x="829" y="-90" width="120" height="60" as="geometry" />
        </mxCell>
        <mxCell id="ummZqKJOf66ntcJbv5-0-28" value="H&lt;br&gt;Gas&lt;br&gt;gas natural" style="rounded=1;whiteSpace=wrap;html=1;" vertex="1" parent="1">
          <mxGeometry x="688" y="-90" width="120" height="60" as="geometry" />
        </mxCell>
        <mxCell id="ummZqKJOf66ntcJbv5-0-29" value="F&lt;br&gt;Petróleo&lt;br&gt;licor negro" style="rounded=1;whiteSpace=wrap;html=1;" vertex="1" parent="1">
          <mxGeometry x="406" y="-90" width="120" height="60" as="geometry" />
        </mxCell>
        <mxCell id="ummZqKJOf66ntcJbv5-0-30" value="G&lt;br&gt;Biomasa&lt;br&gt;licor negro" style="rounded=1;whiteSpace=wrap;html=1;" vertex="1" parent="1">
          <mxGeometry x="547" y="-90" width="120" height="60" as="geometry" />
        </mxCell>
        <mxCell id="ummZqKJOf66ntcJbv5-0-32" value="" style="rounded=1;whiteSpace=wrap;html=1;" vertex="1" parent="1">
          <mxGeometry x="-340" y="-120" width="1500" height="130" as="geometry" />
        </mxCell>
        <mxCell id="ummZqKJOf66ntcJbv5-0-31" value="J&lt;br&gt;Carbón&lt;br&gt;bituminoso" style="rounded=1;whiteSpace=wrap;html=1;" vertex="1" parent="1">
          <mxGeometry x="970" y="-90" width="120" height="60" as="geometry" />
        </mxCell>
      </root>
    </mxGraphModel>
  </diagram>
</mxfile>
